# xmcd
#
# Track frame offsets:
#	150
#	16740
#	32604
#	49131
#	65849
#	84057
#	102201
#	120441
#	135508
#	147675
#	167347
#	188170
#	209195
#	225687
#	243384
#	255634
#	265221
#
# Disc length: 3814 seconds
#
# Revision: 1
# Processed by: cddbd v1.5.1PL0 Copyright (c) Steve Scherf et al.
# Submitted via: audiograbber 1.83.01
#
DISCID=e90ee411
DTITLE=Roger Whittaker - Moments in my life
DYEAR=2005
DGENRE=
TTITLE0=Into the silence
TTITLE1=I'm not in love
TTITLE2=Jenny
TTITLE3=Out of Africa
TTITLE4=Feather on the Wind
TTITLE5=Serenata Serena
TTITLE6=Carnival
TTITLE7=Wildwood Rose
TTITLE8=Light
TTITLE9=River Baion
TTITLE10=Rough and Tumble
TTITLE11=Stars of Africa
TTITLE12=Sweet Dreams
TTITLE13=Always remember (you're never alone)
TTITLE14=Swaggy
TTITLE15=Mexican Whistler (Unplugged Version)
TTITLE16=Two Hundred Thousand Souls
EXTD=
EXTT0=
EXTT1=
EXTT2=
EXTT3=
EXTT4=
EXTT5=
EXTT6=
EXTT7=
EXTT8=
EXTT9=
EXTT10=
EXTT11=
EXTT12=
EXTT13=
EXTT14=
EXTT15=
EXTT16=
PLAYORDER=
